<?xml version="1.0" encoding="UTF-8"?>
<svg width="61px" height="61px" viewBox="0 0 61 61" version="1.1" xmlns="http://www.w3.org/2000/svg" xmlns:xlink="http://www.w3.org/1999/xlink">
    <!-- Generator: Sketch 60.1 (88133) - https://sketch.com -->
    <title>fetysh-logo</title>
    <desc>Created with Sketch.</desc>
    <g id="Page-1" stroke="none" stroke-width="1" fill="none" fill-rule="evenodd">
        <g id="Artboard" transform="translate(-1.000000, -1.000000)">
            <g id="fetysh-logo" transform="translate(2.000000, 2.000000)">
                <path d="M22.2572381,33.0617143 L20.629619,30.823619 L22.6639048,32.6550476 L22.2572381,33.0617143 Z M26.5105714,34.523619 L24.0477143,36.9864762 L22.5372381,35.476 L25.0000952,33.0131429 L26.5105714,34.523619 Z M40.2381905,47.8569524 C40.2381905,49.4321905 38.9562857,50.7140952 37.3810476,50.7140952 C35.8058095,50.7140952 34.5239048,49.4321905 34.5239048,47.8569524 C34.5239048,46.2817143 35.8058095,44.9998095 37.3810476,44.9998095 C38.9562857,44.9998095 40.2381905,46.2817143 40.2381905,47.8569524 L40.2381905,47.8569524 Z M46.5924762,55.5579048 C46.794381,55.7598095 46.9048571,56.0274286 46.9048571,56.3131429 C46.9048571,56.9017143 46.4258095,57.3807619 45.8372381,57.3807619 C45.5562857,57.3807619 45.2810476,57.2664762 45.082,57.068381 L39.8962857,51.883619 C40.5086667,51.4998095 41.0239048,50.9845714 41.4067619,50.3731429 L46.5924762,55.5579048 Z M26.9048571,39.843619 L25.394381,38.3331429 L27.8572381,35.8702857 L29.3677143,37.3807619 L26.9048571,39.843619 Z M29.762,42.7007619 L28.2515238,41.1902857 L30.714381,38.7274286 L32.2248571,40.2379048 L29.762,42.7007619 Z M33.0191429,45.9579048 L31.1086667,44.0474286 L33.5715238,41.5845714 L35.482,43.4950476 C34.382,43.976 33.5000952,44.8588571 33.0191429,45.9579048 L33.0191429,45.9579048 Z M56.6400952,22.9121905 L43.7686667,10.0407619 C41.4915238,7.76457143 40.2381905,4.73790476 40.2381905,1.51695238 L40.2381905,0.237904762 L38.3334286,0.237904762 L38.3334286,1.51695238 C38.3334286,2.73695238 38.5039048,3.92742857 38.8048571,5.07695238 L34.2448571,0.516952381 L32.8981905,1.86361905 L37.4591429,6.42457143 C36.309619,6.12266667 35.1181905,5.95219048 33.8981905,5.95219048 L32.6191429,5.95219048 L32.6191429,7.85695238 L33.8981905,7.85695238 C37.1181905,7.85695238 40.1458095,9.11028571 42.422,11.3874286 L55.2934286,24.2588571 C56.6400952,25.6045714 57.3810476,27.3950476 57.3810476,29.2998095 C57.3810476,33.2302857 54.1829524,36.428381 50.2524762,36.428381 C48.3486667,36.428381 46.5581905,35.6864762 45.2115238,34.3407619 L13.3600952,2.48933333 C11.9086667,1.03790476 9.97819048,0.237904762 7.92485714,0.237904762 C3.6867619,0.237904762 0.238190476,3.68647619 0.238190476,7.92457143 C0.238190476,9.97790476 1.03819048,11.908381 2.48961905,13.3598095 L13.7924762,24.6607619 L20.894381,34.4255238 L19.8439048,35.476 L32.6639048,48.296 C32.8886667,50.7131429 34.9058095,52.6188571 37.3810476,52.6188571 C37.554381,52.6188571 37.7191429,52.5855238 37.8877143,52.5674286 L43.7353333,58.4150476 C44.2886667,58.968381 45.054381,59.2855238 45.8372381,59.2855238 C47.4753333,59.2855238 48.809619,57.9521905 48.809619,56.3131429 C48.809619,55.5188571 48.5010476,54.7721905 47.9391429,54.2112381 L42.0915238,48.363619 C42.109619,48.196 42.1429524,48.0302857 42.1429524,47.8569524 C42.1429524,45.3826667 40.2372381,43.3645714 37.8200952,43.1398095 L25.0000952,30.3198095 L24.0134286,31.3064762 L15.1972381,23.3740952 L3.83628571,12.0131429 C2.74485714,10.9207619 2.14295238,9.46933333 2.14295238,7.92457143 C2.14295238,4.73695238 4.7372381,2.14266667 7.92485714,2.14266667 C9.46866667,2.14266667 10.9210476,2.74361905 12.0134286,3.836 L43.8639048,35.6864762 C45.5705714,37.3931429 47.8391429,38.3331429 50.2524762,38.3331429 C55.2334286,38.3331429 59.2858095,34.2807619 59.2858095,29.2998095 C59.2858095,26.8855238 58.3467619,24.6179048 56.6400952,22.9121905 L56.6400952,22.9121905 Z" id="Fill-1" fill="#D80700"></path>
                <path d="M22.2572381,33.0617143 L20.629619,30.823619 L22.6639048,32.6550476 L22.2572381,33.0617143 Z M26.5105714,34.523619 L24.0477143,36.9864762 L22.5372381,35.476 L25.0000952,33.0131429 L26.5105714,34.523619 Z M40.2381905,47.8569524 C40.2381905,49.4321905 38.9562857,50.7140952 37.3810476,50.7140952 C35.8058095,50.7140952 34.5239048,49.4321905 34.5239048,47.8569524 C34.5239048,46.2817143 35.8058095,44.9998095 37.3810476,44.9998095 C38.9562857,44.9998095 40.2381905,46.2817143 40.2381905,47.8569524 Z M46.5924762,55.5579048 C46.794381,55.7598095 46.9048571,56.0274286 46.9048571,56.3131429 C46.9048571,56.9017143 46.4258095,57.3807619 45.8372381,57.3807619 C45.5562857,57.3807619 45.2810476,57.2664762 45.082,57.068381 L39.8962857,51.883619 C40.5086667,51.4998095 41.0239048,50.9845714 41.4067619,50.3731429 L46.5924762,55.5579048 Z M26.9048571,39.843619 L25.394381,38.3331429 L27.8572381,35.8702857 L29.3677143,37.3807619 L26.9048571,39.843619 Z M29.762,42.7007619 L28.2515238,41.1902857 L30.714381,38.7274286 L32.2248571,40.2379048 L29.762,42.7007619 Z M33.0191429,45.9579048 L31.1086667,44.0474286 L33.5715238,41.5845714 L35.482,43.4950476 C34.382,43.976 33.5000952,44.8588571 33.0191429,45.9579048 Z M56.6400952,22.9121905 L43.7686667,10.0407619 C41.4915238,7.76457143 40.2381905,4.73790476 40.2381905,1.51695238 L40.2381905,0.237904762 L38.3334286,0.237904762 L38.3334286,1.51695238 C38.3334286,2.73695238 38.5039048,3.92742857 38.8048571,5.07695238 L34.2448571,0.516952381 L32.8981905,1.86361905 L37.4591429,6.42457143 C36.309619,6.12266667 35.1181905,5.95219048 33.8981905,5.95219048 L32.6191429,5.95219048 L32.6191429,7.85695238 L33.8981905,7.85695238 C37.1181905,7.85695238 40.1458095,9.11028571 42.422,11.3874286 L55.2934286,24.2588571 C56.6400952,25.6045714 57.3810476,27.3950476 57.3810476,29.2998095 C57.3810476,33.2302857 54.1829524,36.428381 50.2524762,36.428381 C48.3486667,36.428381 46.5581905,35.6864762 45.2115238,34.3407619 L13.3600952,2.48933333 C11.9086667,1.03790476 9.97819048,0.237904762 7.92485714,0.237904762 C3.6867619,0.237904762 0.238190476,3.68647619 0.238190476,7.92457143 C0.238190476,9.97790476 1.03819048,11.908381 2.48961905,13.3598095 L13.7924762,24.6607619 L20.894381,34.4255238 L19.8439048,35.476 L32.6639048,48.296 C32.8886667,50.7131429 34.9058095,52.6188571 37.3810476,52.6188571 C37.554381,52.6188571 37.7191429,52.5855238 37.8877143,52.5674286 L43.7353333,58.4150476 C44.2886667,58.968381 45.054381,59.2855238 45.8372381,59.2855238 C47.4753333,59.2855238 48.809619,57.9521905 48.809619,56.3131429 C48.809619,55.5188571 48.5010476,54.7721905 47.9391429,54.2112381 L42.0915238,48.363619 C42.109619,48.196 42.1429524,48.0302857 42.1429524,47.8569524 C42.1429524,45.3826667 40.2372381,43.3645714 37.8200952,43.1398095 L25.0000952,30.3198095 L24.0134286,31.3064762 L15.1972381,23.3740952 L3.83628571,12.0131429 C2.74485714,10.9207619 2.14295238,9.46933333 2.14295238,7.92457143 C2.14295238,4.73695238 4.7372381,2.14266667 7.92485714,2.14266667 C9.46866667,2.14266667 10.9210476,2.74361905 12.0134286,3.836 L43.8639048,35.6864762 C45.5705714,37.3931429 47.8391429,38.3331429 50.2524762,38.3331429 C55.2334286,38.3331429 59.2858095,34.2807619 59.2858095,29.2998095 C59.2858095,26.8855238 58.3467619,24.6179048 56.6400952,22.9121905 Z" id="Stroke-3" stroke="#D80700" stroke-width="0.5"></path>
            </g>
        </g>
    </g>
</svg>