<?xml version="1.0" encoding="utf-8"?>
<!-- Generator: Adobe Illustrator 24.0.1, SVG Export Plug-In . SVG Version: 6.00 Build 0)  -->
<svg version="1.1" id="Layer_1" xmlns="http://www.w3.org/2000/svg" xmlns:xlink="http://www.w3.org/1999/xlink" x="0px" y="0px"
	 viewBox="0 0 61 61" style="enable-background:new 0 0 61 61;" xml:space="preserve">
<style type="text/css">
	.st0{fill-rule:evenodd;clip-rule:evenodd;fill:#910722;}
	.st1{fill:#910722;}
</style>
<title>fetysh-logo</title>
<desc>Created with Sketch.</desc>
<path id="Fill-1" class="st0" d="M23.3,34.1l-1.6-2.2l2,1.8L23.3,34.1z M27.5,35.5L25,38l-1.5-1.5L26,34L27.5,35.5z M41.2,48.9
	c0,1.6-1.3,2.9-2.9,2.9c-1.6,0-2.9-1.3-2.9-2.9s1.3-2.9,2.9-2.9C40,46,41.2,47.3,41.2,48.9L41.2,48.9z M47.6,56.6
	c0.2,0.2,0.3,0.5,0.3,0.8c0,0.6-0.5,1.1-1.1,1.1c-0.3,0-0.6-0.1-0.8-0.3L40.8,53c0.6-0.4,1.1-0.9,1.5-1.5L47.6,56.6z M27.9,40.8
	l-1.5-1.5l2.5-2.5l1.5,1.5L27.9,40.8z M30.8,43.7l-1.5-1.5l2.5-2.5l1.5,1.5L30.8,43.7z M34,47l-1.9-2l2.5-2.5l1.9,1.9
	C35.4,45,34.5,45.9,34,47L34,47z M57.6,23.9L44.8,11c-2.3-2.3-3.5-5.3-3.5-8.5V1.2h-1.9v1.3c0,1.2,0.2,2.4,0.5,3.6l-4.6-4.6L34,2.8
	l4.6,4.6C37.3,7.1,36.1,7,34.9,7h-1.3v1.9h1.3c3.2,0,6.2,1.3,8.5,3.5l12.9,12.9c1.3,1.3,2.1,3.1,2.1,5c0,3.9-3.2,7.1-7.1,7.1
	c-1.9,0-3.7-0.7-5-2.1L14.4,3.5C12.9,2,11,1.2,8.9,1.2c-4.2,0-7.7,3.4-7.7,7.7c0,2.1,0.8,4,2.3,5.4l11.3,11.3l7.1,9.8l-1.1,1.1
	l12.8,12.8c0.2,2.4,2.2,4.3,4.7,4.3c0.2,0,0.3,0,0.5-0.1l5.8,5.8c0.6,0.6,1.3,0.9,2.1,0.9c1.6,0,3-1.3,3-3c0-0.8-0.3-1.5-0.9-2.1
	L43,49.3c0-0.2,0.1-0.3,0.1-0.5c0-2.5-1.9-4.5-4.3-4.7L26,31.3l-1,1l-8.8-7.9L4.8,13c-1.1-1.1-1.7-2.5-1.7-4.1
	c0-3.2,2.6-5.8,5.8-5.8c1.5,0,3,0.6,4.1,1.7l31.9,31.9c1.7,1.7,4,2.6,6.4,2.6c5,0,9-4.1,9-9C60.3,27.9,59.3,25.6,57.6,23.9
	L57.6,23.9z"/>
<path id="Stroke-3" class="st1" d="M23.3,34.1l-1.6-2.2l2,1.8L23.3,34.1z M27.5,35.5L25,38l-1.5-1.5L26,34L27.5,35.5z M41.2,48.9
	c0,1.6-1.3,2.9-2.9,2.9c-1.6,0-2.9-1.3-2.9-2.9s1.3-2.9,2.9-2.9C40,46,41.2,47.3,41.2,48.9z M47.6,56.6c0.2,0.2,0.3,0.5,0.3,0.8
	c0,0.6-0.5,1.1-1.1,1.1c-0.3,0-0.6-0.1-0.8-0.3L40.8,53c0.6-0.4,1.1-0.9,1.5-1.5L47.6,56.6z M27.9,40.8l-1.5-1.5l2.5-2.5l1.5,1.5
	L27.9,40.8z M30.8,43.7l-1.5-1.5l2.5-2.5l1.5,1.5L30.8,43.7z M34,47l-1.9-2l2.5-2.5l1.9,1.9C35.4,45,34.5,45.9,34,47z M57.6,23.9
	L44.8,11c-2.3-2.3-3.5-5.3-3.5-8.5V1.2h-1.9v1.3c0,1.2,0.2,2.4,0.5,3.6l-4.6-4.6L34,2.8l4.6,4.6C37.3,7.1,36.1,7,34.9,7h-1.3v1.9
	h1.3c3.2,0,6.2,1.3,8.5,3.5l12.9,12.9c1.3,1.3,2.1,3.1,2.1,5c0,3.9-3.2,7.1-7.1,7.1c-1.9,0-3.7-0.7-5-2.1L14.4,3.5
	C12.9,2,11,1.2,8.9,1.2c-4.2,0-7.7,3.4-7.7,7.7c0,2.1,0.8,4,2.3,5.4l11.3,11.3l7.1,9.8l-1.1,1.1l12.8,12.8c0.2,2.4,2.2,4.3,4.7,4.3
	c0.2,0,0.3,0,0.5-0.1l5.8,5.8c0.6,0.6,1.3,0.9,2.1,0.9c1.6,0,3-1.3,3-3c0-0.8-0.3-1.5-0.9-2.1L43,49.3c0-0.2,0.1-0.3,0.1-0.5
	c0-2.5-1.9-4.5-4.3-4.7L26,31.3l-1,1l-8.8-7.9L4.8,13c-1.1-1.1-1.7-2.5-1.7-4.1c0-3.2,2.6-5.8,5.8-5.8c1.5,0,3,0.6,4.1,1.7
	l31.9,31.9c1.7,1.7,4,2.6,6.4,2.6c5,0,9-4.1,9-9C60.3,27.9,59.3,25.6,57.6,23.9z"/>
</svg>
